<svg width="19" height="29" viewBox="0 0 19 29" fill="none" xmlns="http://www.w3.org/2000/svg">
<path d="M15.9545 5.54545V23H13.9091L4.39773 9.29545H4.22727V23H2.11364V5.54545H4.15909L13.7045 19.2841H13.875V5.54545H15.9545Z" fill="black"/>
<path d="M12.6591 9.90909C12.5568 9.04545 12.142 8.375 11.4148 7.89773C10.6875 7.42045 9.79545 7.18182 8.73864 7.18182C7.96591 7.18182 7.28977 7.30682 6.71023 7.55682C6.13636 7.80682 5.6875 8.15057 5.36364 8.58807C5.04545 9.02557 4.88636 9.52273 4.88636 10.0795C4.88636 10.5455 4.99716 10.946 5.21875 11.2812C5.44602 11.6108 5.7358 11.8864 6.08807 12.108C6.44034 12.3239 6.80966 12.5028 7.19602 12.6449C7.58239 12.7812 7.9375 12.892 8.26136 12.9773L10.0341 13.4545C10.4886 13.5739 10.9943 13.7386 11.5511 13.9489C12.1136 14.1591 12.6506 14.446 13.1619 14.8097C13.679 15.1676 14.1051 15.6278 14.4403 16.1903C14.7756 16.7528 14.9432 17.4432 14.9432 18.2614C14.9432 19.2045 14.696 20.0568 14.2017 20.8182C13.7131 21.5795 12.9972 22.1847 12.054 22.6335C11.1165 23.0824 9.97727 23.3068 8.63636 23.3068C7.38636 23.3068 6.30398 23.1051 5.3892 22.7017C4.48011 22.2983 3.7642 21.7358 3.24148 21.0142C2.72443 20.2926 2.43182 19.4545 2.36364 18.5H4.54545C4.60227 19.1591 4.82386 19.7045 5.21023 20.1364C5.60227 20.5625 6.09659 20.8807 6.69318 21.0909C7.29545 21.2955 7.94318 21.3977 8.63636 21.3977C9.44318 21.3977 10.1676 21.267 10.8097 21.0057C11.4517 20.7386 11.9602 20.3693 12.3352 19.8977C12.7102 19.4205 12.8977 18.8636 12.8977 18.2273C12.8977 17.6477 12.7358 17.1761 12.4119 16.8125C12.0881 16.4489 11.6619 16.1534 11.1335 15.9261C10.6051 15.6989 10.0341 15.5 9.42045 15.3295L7.27273 14.7159C5.90909 14.3239 4.82955 13.7642 4.03409 13.0369C3.23864 12.3097 2.84091 11.358 2.84091 10.1818C2.84091 9.20454 3.10511 8.35227 3.63352 7.625C4.16761 6.89205 4.88352 6.32386 5.78125 5.92045C6.68466 5.51136 7.69318 5.30682 8.80682 5.30682C9.93182 5.30682 10.9318 5.50852 11.8068 5.91193C12.6818 6.30966 13.375 6.85511 13.8864 7.54829C14.4034 8.24148 14.6761 9.02841 14.7045 9.90909H12.6591Z" fill="black"/>
</svg>
